<?xml version="1.0" encoding="ISO-8859-1" standalone="no"?>
<!DOCTYPE svg PUBLIC "-//W3C//DTD SVG 1.1//EN"
 "http://www.w3.org/Graphics/SVG/1.1/DTD/svg11.dtd">
<svg width="18.0338mm" height="6.04mm" 
     viewBox="0 0 51.1195 17.1213" 
     xmlns="http://www.w3.org/2000/svg" xmlns:xlink="http://www.w3.org/1999/xlink" version="1.1" >
<desc>Drawing created with the Board library (v0.9.6) Copyright Sebastien Fourey</desc>
<ellipse cx="7.93701" cy="8.56063" rx="2.26772" ry="8.50394" fill="rgb(255,255,255)" stroke="rgb(0,139,139)" stroke-width="0.02mm" style="stroke-linecap:butt;stroke-linejoin:miter"  fill-opacity="0.000000" />
<ellipse cx="5.66929" cy="8.56063" rx="2.83465" ry="8.50394" fill="rgb(255,255,255)" stroke="rgb(0,139,139)" stroke-width="0.02mm" style="stroke-linecap:butt;stroke-linejoin:miter"  fill-opacity="0.000000" />
<path fill="rgb(255,255,255)" stroke="rgb(0,139,139)" stroke-width="0mm" style="stroke-linecap:butt;stroke-linejoin:miter"
          d="M 2.77795 17.1213 L 10.2614 17.1213 L 10.2614 0 L 2.77795 0 Z
M 5.6126 0.94275 L 8.56063 0.94275 L 8.56063 16.1785 L 5.6126 16.1785 Z
" />
<rect x="6.92913" y="0.94275" width="0" height="15.2358" fill="rgb(255,255,255)" stroke="rgb(0,139,139)" stroke-width="0.02mm" style="stroke-linecap:butt;stroke-linejoin:miter" />
<g>
<line x1="0" y1="10.0842" x2="5.16438" y2="10.0842" fill="rgb(255,255,255)" stroke="rgb(255,0,0)" stroke-width="0.02mm" style="stroke-linecap:butt;stroke-linejoin:miter" />
<polygon fill="rgb(255,0,0)" stroke="rgb(255,0,0)" stroke-width="0.02mm" style="stroke-linecap:butt;stroke-linejoin:miter"
          points="5.16438,10.2517 5.70598,10.0842 5.16438,9.91667" />
</g>
<g>
<line x1="5.70598" y1="10.0842" x2="7.9188" y2="10.0535" fill="rgb(255,255,255)" stroke="rgb(0,128,0)" stroke-width="0.02mm" style="stroke-linecap:butt;stroke-linejoin:miter" />
<polygon fill="rgb(0,128,0)" stroke="rgb(0,128,0)" stroke-width="0.02mm" style="stroke-linecap:butt;stroke-linejoin:miter"
          points="7.92113,10.221 8.46036,10.046 7.91648,9.88599" />
</g>
<g>
<line x1="8.46036" y1="10.046" x2="50.3994" y2="8.23599" fill="rgb(255,255,255)" stroke="rgb(0,0,255)" stroke-width="0.02mm" style="stroke-linecap:butt;stroke-linejoin:miter" />
<polygon fill="rgb(0,0,255)" stroke="rgb(0,0,255)" stroke-width="0.02mm" style="stroke-linecap:butt;stroke-linejoin:miter"
          points="50.4066,8.40337 50.9405,8.21263 50.3922,8.0686" />
</g>
<g>
<line x1="0" y1="9.70331" x2="5.14825" y2="9.70331" fill="rgb(255,255,255)" stroke="rgb(255,0,0)" stroke-width="0.02mm" style="stroke-linecap:butt;stroke-linejoin:miter" />
<polygon fill="rgb(255,0,0)" stroke="rgb(255,0,0)" stroke-width="0.02mm" style="stroke-linecap:butt;stroke-linejoin:miter"
          points="5.14825,9.87085 5.68986,9.70331 5.14825,9.53577" />
</g>
<g>
<line x1="5.68986" y1="9.70331" x2="7.93794" y2="9.68009" fill="rgb(255,255,255)" stroke="rgb(0,128,0)" stroke-width="0.02mm" style="stroke-linecap:butt;stroke-linejoin:miter" />
<polygon fill="rgb(0,128,0)" stroke="rgb(0,128,0)" stroke-width="0.02mm" style="stroke-linecap:butt;stroke-linejoin:miter"
          points="7.93967,9.84762 8.47952,9.67449 7.93621,9.51256" />
</g>
<g>
<line x1="8.47952" y1="9.67449" x2="50.436" y2="8.32713" fill="rgb(255,255,255)" stroke="rgb(0,0,255)" stroke-width="0.02mm" style="stroke-linecap:butt;stroke-linejoin:miter" />
<polygon fill="rgb(0,0,255)" stroke="rgb(0,0,255)" stroke-width="0.02mm" style="stroke-linecap:butt;stroke-linejoin:miter"
          points="50.4413,8.49458 50.9773,8.30975 50.4306,8.15968" />
</g>
<g>
<line x1="0" y1="9.32242" x2="5.1368" y2="9.32242" fill="rgb(255,255,255)" stroke="rgb(255,0,0)" stroke-width="0.02mm" style="stroke-linecap:butt;stroke-linejoin:miter" />
<polygon fill="rgb(255,0,0)" stroke="rgb(255,0,0)" stroke-width="0.02mm" style="stroke-linecap:butt;stroke-linejoin:miter"
          points="5.1368,9.48996 5.67841,9.32242 5.1368,9.15488" />
</g>
<g>
<line x1="5.67841" y1="9.32242" x2="7.95152" y2="9.30684" fill="rgb(255,255,255)" stroke="rgb(0,128,0)" stroke-width="0.02mm" style="stroke-linecap:butt;stroke-linejoin:miter" />
<polygon fill="rgb(0,128,0)" stroke="rgb(0,128,0)" stroke-width="0.02mm" style="stroke-linecap:butt;stroke-linejoin:miter"
          points="7.95266,9.47438 8.49311,9.30313 7.95037,9.13931" />
</g>
<g>
<line x1="8.49311" y1="9.30313" x2="50.4617" y2="8.40963" fill="rgb(255,255,255)" stroke="rgb(0,0,255)" stroke-width="0.02mm" style="stroke-linecap:butt;stroke-linejoin:miter" />
<polygon fill="rgb(0,0,255)" stroke="rgb(0,0,255)" stroke-width="0.02mm" style="stroke-linecap:butt;stroke-linejoin:miter"
          points="50.4652,8.57713 51.0032,8.3981 50.4581,8.24213" />
</g>
<g>
<line x1="0" y1="8.94152" x2="5.12996" y2="8.94152" fill="rgb(255,255,255)" stroke="rgb(255,0,0)" stroke-width="0.02mm" style="stroke-linecap:butt;stroke-linejoin:miter" />
<polygon fill="rgb(255,0,0)" stroke="rgb(255,0,0)" stroke-width="0.02mm" style="stroke-linecap:butt;stroke-linejoin:miter"
          points="5.12996,9.10906 5.67157,8.94152 5.12996,8.77398" />
</g>
<g>
<line x1="5.67157" y1="8.94152" x2="7.95963" y2="8.93371" fill="rgb(255,255,255)" stroke="rgb(0,128,0)" stroke-width="0.02mm" style="stroke-linecap:butt;stroke-linejoin:miter" />
<polygon fill="rgb(0,128,0)" stroke="rgb(0,128,0)" stroke-width="0.02mm" style="stroke-linecap:butt;stroke-linejoin:miter"
          points="7.9602,9.10125 8.50123,8.93186 7.95906,8.76617" />
</g>
<g>
<line x1="8.50123" y1="8.93186" x2="50.477" y2="8.48651" fill="rgb(255,255,255)" stroke="rgb(0,0,255)" stroke-width="0.02mm" style="stroke-linecap:butt;stroke-linejoin:miter" />
<polygon fill="rgb(0,0,255)" stroke="rgb(0,0,255)" stroke-width="0.02mm" style="stroke-linecap:butt;stroke-linejoin:miter"
          points="50.4787,8.65404 51.0185,8.48076 50.4752,8.31898" />
</g>
<g>
<line x1="0" y1="8.56063" x2="5.12768" y2="8.56063" fill="rgb(255,255,255)" stroke="rgb(255,0,0)" stroke-width="0.02mm" style="stroke-linecap:butt;stroke-linejoin:miter" />
<polygon fill="rgb(255,0,0)" stroke="rgb(255,0,0)" stroke-width="0.02mm" style="stroke-linecap:butt;stroke-linejoin:miter"
          points="5.12768,8.72817 5.66929,8.56063 5.12768,8.39309" />
</g>
<g>
<line x1="5.66929" y1="8.56063" x2="7.96233" y2="8.56063" fill="rgb(255,255,255)" stroke="rgb(0,128,0)" stroke-width="0.02mm" style="stroke-linecap:butt;stroke-linejoin:miter" />
<polygon fill="rgb(0,128,0)" stroke="rgb(0,128,0)" stroke-width="0.02mm" style="stroke-linecap:butt;stroke-linejoin:miter"
          points="7.96233,8.72817 8.50394,8.56063 7.96233,8.39309" />
</g>
<g>
<line x1="8.50394" y1="8.56063" x2="50.482" y2="8.56063" fill="rgb(255,255,255)" stroke="rgb(0,0,255)" stroke-width="0.02mm" style="stroke-linecap:butt;stroke-linejoin:miter" />
<polygon fill="rgb(0,0,255)" stroke="rgb(0,0,255)" stroke-width="0.02mm" style="stroke-linecap:butt;stroke-linejoin:miter"
          points="50.482,8.72817 51.0236,8.56063 50.482,8.39309" />
</g>
<g>
<line x1="0" y1="8.17974" x2="5.12996" y2="8.17974" fill="rgb(255,255,255)" stroke="rgb(255,0,0)" stroke-width="0.02mm" style="stroke-linecap:butt;stroke-linejoin:miter" />
<polygon fill="rgb(255,0,0)" stroke="rgb(255,0,0)" stroke-width="0.02mm" style="stroke-linecap:butt;stroke-linejoin:miter"
          points="5.12996,8.34727 5.67157,8.17974 5.12996,8.0122" />
</g>
<g>
<line x1="5.67157" y1="8.17974" x2="7.95963" y2="8.18755" fill="rgb(255,255,255)" stroke="rgb(0,128,0)" stroke-width="0.02mm" style="stroke-linecap:butt;stroke-linejoin:miter" />
<polygon fill="rgb(0,128,0)" stroke="rgb(0,128,0)" stroke-width="0.02mm" style="stroke-linecap:butt;stroke-linejoin:miter"
          points="7.95906,8.35509 8.50123,8.1894 7.9602,8.02001" />
</g>
<g>
<line x1="8.50123" y1="8.1894" x2="50.477" y2="8.63475" fill="rgb(255,255,255)" stroke="rgb(0,0,255)" stroke-width="0.02mm" style="stroke-linecap:butt;stroke-linejoin:miter" />
<polygon fill="rgb(0,0,255)" stroke="rgb(0,0,255)" stroke-width="0.02mm" style="stroke-linecap:butt;stroke-linejoin:miter"
          points="50.4752,8.80228 51.0185,8.6405 50.4787,8.46722" />
</g>
<g>
<line x1="0" y1="7.79884" x2="5.1368" y2="7.79884" fill="rgb(255,255,255)" stroke="rgb(255,0,0)" stroke-width="0.02mm" style="stroke-linecap:butt;stroke-linejoin:miter" />
<polygon fill="rgb(255,0,0)" stroke="rgb(255,0,0)" stroke-width="0.02mm" style="stroke-linecap:butt;stroke-linejoin:miter"
          points="5.1368,7.96638 5.67841,7.79884 5.1368,7.6313" />
</g>
<g>
<line x1="5.67841" y1="7.79884" x2="7.95152" y2="7.81442" fill="rgb(255,255,255)" stroke="rgb(0,128,0)" stroke-width="0.02mm" style="stroke-linecap:butt;stroke-linejoin:miter" />
<polygon fill="rgb(0,128,0)" stroke="rgb(0,128,0)" stroke-width="0.02mm" style="stroke-linecap:butt;stroke-linejoin:miter"
          points="7.95037,7.98195 8.49311,7.81813 7.95266,7.64688" />
</g>
<g>
<line x1="8.49311" y1="7.81813" x2="50.4617" y2="8.71163" fill="rgb(255,255,255)" stroke="rgb(0,0,255)" stroke-width="0.02mm" style="stroke-linecap:butt;stroke-linejoin:miter" />
<polygon fill="rgb(0,0,255)" stroke="rgb(0,0,255)" stroke-width="0.02mm" style="stroke-linecap:butt;stroke-linejoin:miter"
          points="50.4581,8.87913 51.0032,8.72316 50.4652,8.54413" />
</g>
<g>
<line x1="0" y1="7.41795" x2="5.14825" y2="7.41795" fill="rgb(255,255,255)" stroke="rgb(255,0,0)" stroke-width="0.02mm" style="stroke-linecap:butt;stroke-linejoin:miter" />
<polygon fill="rgb(255,0,0)" stroke="rgb(255,0,0)" stroke-width="0.02mm" style="stroke-linecap:butt;stroke-linejoin:miter"
          points="5.14825,7.58549 5.68986,7.41795 5.14825,7.25041" />
</g>
<g>
<line x1="5.68986" y1="7.41795" x2="7.93794" y2="7.44117" fill="rgb(255,255,255)" stroke="rgb(0,128,0)" stroke-width="0.02mm" style="stroke-linecap:butt;stroke-linejoin:miter" />
<polygon fill="rgb(0,128,0)" stroke="rgb(0,128,0)" stroke-width="0.02mm" style="stroke-linecap:butt;stroke-linejoin:miter"
          points="7.93621,7.6087 8.47952,7.44677 7.93967,7.27364" />
</g>
<g>
<line x1="8.47952" y1="7.44677" x2="50.436" y2="8.79413" fill="rgb(255,255,255)" stroke="rgb(0,0,255)" stroke-width="0.02mm" style="stroke-linecap:butt;stroke-linejoin:miter" />
<polygon fill="rgb(0,0,255)" stroke="rgb(0,0,255)" stroke-width="0.02mm" style="stroke-linecap:butt;stroke-linejoin:miter"
          points="50.4306,8.96158 50.9773,8.81151 50.4413,8.62668" />
</g>
<g>
<line x1="0" y1="7.03705" x2="5.16438" y2="7.03705" fill="rgb(255,255,255)" stroke="rgb(255,0,0)" stroke-width="0.02mm" style="stroke-linecap:butt;stroke-linejoin:miter" />
<polygon fill="rgb(255,0,0)" stroke="rgb(255,0,0)" stroke-width="0.02mm" style="stroke-linecap:butt;stroke-linejoin:miter"
          points="5.16438,7.20459 5.70598,7.03705 5.16438,6.86951" />
</g>
<g>
<line x1="5.70598" y1="7.03705" x2="7.9188" y2="7.06775" fill="rgb(255,255,255)" stroke="rgb(0,128,0)" stroke-width="0.02mm" style="stroke-linecap:butt;stroke-linejoin:miter" />
<polygon fill="rgb(0,128,0)" stroke="rgb(0,128,0)" stroke-width="0.02mm" style="stroke-linecap:butt;stroke-linejoin:miter"
          points="7.91648,7.23527 8.46036,7.07526 7.92113,6.90023" />
</g>
<g>
<line x1="8.46036" y1="7.07526" x2="50.3994" y2="8.88527" fill="rgb(255,255,255)" stroke="rgb(0,0,255)" stroke-width="0.02mm" style="stroke-linecap:butt;stroke-linejoin:miter" />
<polygon fill="rgb(0,0,255)" stroke="rgb(0,0,255)" stroke-width="0.02mm" style="stroke-linecap:butt;stroke-linejoin:miter"
          points="50.3922,9.05266 50.9405,8.90863 50.4066,8.71789" />
</g>
<line x1="43.0473" y1="8.56063" x2="43.0473" y2="8.56063" fill="none" stroke="rgb(255,0,0)" stroke-width="0.1mm" style="stroke-linecap:round;stroke-linejoin:miter" />
<line x1="43.0473" y1="8.56063" x2="43.0473" y2="8.56063" fill="none" stroke="rgb(0,128,0)" stroke-width="0.1mm" style="stroke-linecap:round;stroke-linejoin:miter" />
<line x1="43.0475" y1="8.56063" x2="43.0475" y2="8.56063" fill="none" stroke="rgb(0,0,255)" stroke-width="0.1mm" style="stroke-linecap:round;stroke-linejoin:miter" />
</svg>
