<?xml version="1.0" encoding="ISO-8859-1" standalone="no"?>
<!DOCTYPE svg PUBLIC "-//W3C//DTD SVG 1.1//EN"
 "http://www.w3.org/Graphics/SVG/1.1/DTD/svg11.dtd">
<svg width="2000mm" height="2000mm" 
     viewBox="0 0 5669.29 5669.29" 
     xmlns="http://www.w3.org/2000/svg" xmlns:xlink="http://www.w3.org/1999/xlink" version="1.1" >
<desc>Drawing created with the Board library (v0.9.6) Copyright Sebastien Fourey</desc>
<rect x="0" y="0" width="5669.29" height="5669.29" fill="rgb(255,255,255)" stroke="none" stroke-width="0" style="stroke-linecap:round;stroke-linejoin:round;" />
<ellipse cx="3174.8" cy="2834.65" rx="566.929" ry="850.394" fill="rgb(255,255,255)" stroke="rgb(0,139,139)" stroke-width="2mm" style="stroke-linecap:butt;stroke-linejoin:miter"  fill-opacity="0.000000" />
<ellipse cx="2777.95" cy="2834.65" rx="283.465" ry="850.394" fill="rgb(255,255,255)" stroke="rgb(0,139,139)" stroke-width="2mm" style="stroke-linecap:butt;stroke-linejoin:miter"  fill-opacity="0.000000" />
<path fill="rgb(255,255,255)" stroke="rgb(0,139,139)" stroke-width="0mm" style="stroke-linecap:butt;stroke-linejoin:miter"
          d="M 2488.82 3690.71 L 3747.4 3690.71 L 3747.4 1978.58 L 2488.82 1978.58 Z
M 2602.2 2082.53 L 3067.09 2082.53 L 3067.09 3586.76 L 2602.2 3586.76 Z
" />
<rect x="2910.24" y="2082.53" width="0" height="1504.23" fill="rgb(255,255,255)" stroke="rgb(0,139,139)" stroke-width="2mm" style="stroke-linecap:butt;stroke-linejoin:miter" />
<g>
<line x1="1190.55" y1="3436.34" x2="2720.01" y2="3436.34" fill="rgb(255,255,255)" stroke="rgb(255,0,0)" stroke-width="2mm" style="stroke-linecap:butt;stroke-linejoin:miter" />
<polygon fill="rgb(255,0,0)" stroke="rgb(255,0,0)" stroke-width="2mm" style="stroke-linecap:butt;stroke-linejoin:miter"
          points="2720.01,3453.09 2774.17,3436.34 2720.01,3419.58" />
</g>
<g>
<line x1="2774.17" y1="3436.34" x2="2939.67" y2="3401.16" fill="rgb(255,255,255)" stroke="rgb(0,128,0)" stroke-width="2mm" style="stroke-linecap:butt;stroke-linejoin:miter" />
<polygon fill="rgb(0,128,0)" stroke="rgb(0,128,0)" stroke-width="2mm" style="stroke-linecap:butt;stroke-linejoin:miter"
          points="2943.16,3417.55 2992.65,3389.9 2936.19,3384.77" />
</g>
<g>
<line x1="2992.65" y1="3389.9" x2="4187.27" y2="2733.33" fill="rgb(255,255,255)" stroke="rgb(0,0,255)" stroke-width="2mm" style="stroke-linecap:butt;stroke-linejoin:miter" />
<polygon fill="rgb(0,0,255)" stroke="rgb(0,0,255)" stroke-width="2mm" style="stroke-linecap:butt;stroke-linejoin:miter"
          points="4195.34,2748.01 4234.74,2707.24 4179.2,2718.64" />
</g>
<g>
<line x1="1190.55" y1="3285.92" x2="2640.12" y2="3285.92" fill="rgb(255,255,255)" stroke="rgb(255,0,0)" stroke-width="2mm" style="stroke-linecap:butt;stroke-linejoin:miter" />
<polygon fill="rgb(255,0,0)" stroke="rgb(255,0,0)" stroke-width="2mm" style="stroke-linecap:butt;stroke-linejoin:miter"
          points="2640.12,3302.67 2694.28,3285.92 2640.12,3269.16" />
</g>
<g>
<line x1="2694.28" y1="3285.92" x2="2973.39" y2="3247.8" fill="rgb(255,255,255)" stroke="rgb(0,128,0)" stroke-width="2mm" style="stroke-linecap:butt;stroke-linejoin:miter" />
<polygon fill="rgb(0,128,0)" stroke="rgb(0,128,0)" stroke-width="2mm" style="stroke-linecap:butt;stroke-linejoin:miter"
          points="2975.66,3264.4 3027.06,3240.48 2971.13,3231.2" />
</g>
<g>
<line x1="3027.06" y1="3240.48" x2="4327.75" y2="2832.55" fill="rgb(255,255,255)" stroke="rgb(0,0,255)" stroke-width="2mm" style="stroke-linecap:butt;stroke-linejoin:miter" />
<polygon fill="rgb(0,0,255)" stroke="rgb(0,0,255)" stroke-width="2mm" style="stroke-linecap:butt;stroke-linejoin:miter"
          points="4332.77,2848.54 4379.43,2816.35 4322.74,2816.57" />
</g>
<g>
<line x1="1190.55" y1="3135.49" x2="2590.38" y2="3135.49" fill="rgb(255,255,255)" stroke="rgb(255,0,0)" stroke-width="2mm" style="stroke-linecap:butt;stroke-linejoin:miter" />
<polygon fill="rgb(255,0,0)" stroke="rgb(255,0,0)" stroke-width="2mm" style="stroke-linecap:butt;stroke-linejoin:miter"
          points="2590.38,3152.25 2644.54,3135.49 2590.38,3118.74" />
</g>
<g>
<line x1="2644.54" y1="3135.49" x2="2993.08" y2="3106.4" fill="rgb(255,255,255)" stroke="rgb(0,128,0)" stroke-width="2mm" style="stroke-linecap:butt;stroke-linejoin:miter" />
<polygon fill="rgb(0,128,0)" stroke="rgb(0,128,0)" stroke-width="2mm" style="stroke-linecap:butt;stroke-linejoin:miter"
          points="2994.48,3123.1 3047.06,3101.9 2991.69,3089.7" />
</g>
<g>
<line x1="3047.06" y1="3101.9" x2="4387.65" y2="2854.9" fill="rgb(255,255,255)" stroke="rgb(0,0,255)" stroke-width="2mm" style="stroke-linecap:butt;stroke-linejoin:miter" />
<polygon fill="rgb(0,0,255)" stroke="rgb(0,0,255)" stroke-width="2mm" style="stroke-linecap:butt;stroke-linejoin:miter"
          points="4390.69,2871.38 4440.92,2845.09 4384.62,2838.42" />
</g>
<g>
<line x1="1190.55" y1="2985.07" x2="2562.65" y2="2985.07" fill="rgb(255,255,255)" stroke="rgb(255,0,0)" stroke-width="2mm" style="stroke-linecap:butt;stroke-linejoin:miter" />
<polygon fill="rgb(255,0,0)" stroke="rgb(255,0,0)" stroke-width="2mm" style="stroke-linecap:butt;stroke-linejoin:miter"
          points="2562.65,3001.82 2616.81,2985.07 2562.65,2968.32" />
</g>
<g>
<line x1="2616.81" y1="2985.07" x2="3003.82" y2="2969.64" fill="rgb(255,255,255)" stroke="rgb(0,128,0)" stroke-width="2mm" style="stroke-linecap:butt;stroke-linejoin:miter" />
<polygon fill="rgb(0,128,0)" stroke="rgb(0,128,0)" stroke-width="2mm" style="stroke-linecap:butt;stroke-linejoin:miter"
          points="3004.49,2986.38 3057.94,2967.48 3003.15,2952.9" />
</g>
<g>
<line x1="3057.94" y1="2967.48" x2="4416.02" y2="2849.9" fill="rgb(255,255,255)" stroke="rgb(0,0,255)" stroke-width="2mm" style="stroke-linecap:butt;stroke-linejoin:miter" />
<polygon fill="rgb(0,0,255)" stroke="rgb(0,0,255)" stroke-width="2mm" style="stroke-linecap:butt;stroke-linejoin:miter"
          points="4417.46,2866.59 4469.98,2845.23 4414.57,2833.21" />
</g>
<g>
<line x1="1190.55" y1="2834.65" x2="2553.71" y2="2834.65" fill="rgb(255,255,255)" stroke="rgb(255,0,0)" stroke-width="2mm" style="stroke-linecap:butt;stroke-linejoin:miter" />
<polygon fill="rgb(255,0,0)" stroke="rgb(255,0,0)" stroke-width="2mm" style="stroke-linecap:butt;stroke-linejoin:miter"
          points="2553.71,2851.4 2607.87,2834.65 2553.71,2817.89" />
</g>
<g>
<line x1="2607.87" y1="2834.65" x2="3007.26" y2="2834.65" fill="rgb(255,255,255)" stroke="rgb(0,128,0)" stroke-width="2mm" style="stroke-linecap:butt;stroke-linejoin:miter" />
<polygon fill="rgb(0,128,0)" stroke="rgb(0,128,0)" stroke-width="2mm" style="stroke-linecap:butt;stroke-linejoin:miter"
          points="3007.26,2851.4 3061.42,2834.65 3007.26,2817.89" />
</g>
<g>
<line x1="3061.42" y1="2834.65" x2="4424.58" y2="2834.65" fill="rgb(255,255,255)" stroke="rgb(0,0,255)" stroke-width="2mm" style="stroke-linecap:butt;stroke-linejoin:miter" />
<polygon fill="rgb(0,0,255)" stroke="rgb(0,0,255)" stroke-width="2mm" style="stroke-linecap:butt;stroke-linejoin:miter"
          points="4424.58,2851.4 4478.74,2834.65 4424.58,2817.89" />
</g>
<g>
<line x1="1190.55" y1="2684.22" x2="2562.65" y2="2684.22" fill="rgb(255,255,255)" stroke="rgb(255,0,0)" stroke-width="2mm" style="stroke-linecap:butt;stroke-linejoin:miter" />
<polygon fill="rgb(255,0,0)" stroke="rgb(255,0,0)" stroke-width="2mm" style="stroke-linecap:butt;stroke-linejoin:miter"
          points="2562.65,2700.98 2616.81,2684.22 2562.65,2667.47" />
</g>
<g>
<line x1="2616.81" y1="2684.22" x2="3003.82" y2="2699.65" fill="rgb(255,255,255)" stroke="rgb(0,128,0)" stroke-width="2mm" style="stroke-linecap:butt;stroke-linejoin:miter" />
<polygon fill="rgb(0,128,0)" stroke="rgb(0,128,0)" stroke-width="2mm" style="stroke-linecap:butt;stroke-linejoin:miter"
          points="3003.15,2716.39 3057.94,2701.81 3004.49,2682.91" />
</g>
<g>
<line x1="3057.94" y1="2701.81" x2="4416.02" y2="2819.39" fill="rgb(255,255,255)" stroke="rgb(0,0,255)" stroke-width="2mm" style="stroke-linecap:butt;stroke-linejoin:miter" />
<polygon fill="rgb(0,0,255)" stroke="rgb(0,0,255)" stroke-width="2mm" style="stroke-linecap:butt;stroke-linejoin:miter"
          points="4414.57,2836.08 4469.98,2824.06 4417.46,2802.7" />
</g>
<g>
<line x1="1190.55" y1="2533.8" x2="2590.38" y2="2533.8" fill="rgb(255,255,255)" stroke="rgb(255,0,0)" stroke-width="2mm" style="stroke-linecap:butt;stroke-linejoin:miter" />
<polygon fill="rgb(255,0,0)" stroke="rgb(255,0,0)" stroke-width="2mm" style="stroke-linecap:butt;stroke-linejoin:miter"
          points="2590.38,2550.55 2644.54,2533.8 2590.38,2517.05" />
</g>
<g>
<line x1="2644.54" y1="2533.8" x2="2993.08" y2="2562.89" fill="rgb(255,255,255)" stroke="rgb(0,128,0)" stroke-width="2mm" style="stroke-linecap:butt;stroke-linejoin:miter" />
<polygon fill="rgb(0,128,0)" stroke="rgb(0,128,0)" stroke-width="2mm" style="stroke-linecap:butt;stroke-linejoin:miter"
          points="2991.69,2579.59 3047.06,2567.4 2994.48,2546.2" />
</g>
<g>
<line x1="3047.06" y1="2567.4" x2="4387.65" y2="2814.39" fill="rgb(255,255,255)" stroke="rgb(0,0,255)" stroke-width="2mm" style="stroke-linecap:butt;stroke-linejoin:miter" />
<polygon fill="rgb(0,0,255)" stroke="rgb(0,0,255)" stroke-width="2mm" style="stroke-linecap:butt;stroke-linejoin:miter"
          points="4384.62,2830.87 4440.92,2824.21 4390.69,2797.91" />
</g>
<g>
<line x1="1190.55" y1="2383.38" x2="2640.12" y2="2383.38" fill="rgb(255,255,255)" stroke="rgb(255,0,0)" stroke-width="2mm" style="stroke-linecap:butt;stroke-linejoin:miter" />
<polygon fill="rgb(255,0,0)" stroke="rgb(255,0,0)" stroke-width="2mm" style="stroke-linecap:butt;stroke-linejoin:miter"
          points="2640.12,2400.13 2694.28,2383.38 2640.12,2366.62" />
</g>
<g>
<line x1="2694.28" y1="2383.38" x2="2973.39" y2="2421.49" fill="rgb(255,255,255)" stroke="rgb(0,128,0)" stroke-width="2mm" style="stroke-linecap:butt;stroke-linejoin:miter" />
<polygon fill="rgb(0,128,0)" stroke="rgb(0,128,0)" stroke-width="2mm" style="stroke-linecap:butt;stroke-linejoin:miter"
          points="2971.13,2438.09 3027.06,2428.82 2975.66,2404.89" />
</g>
<g>
<line x1="3027.06" y1="2428.82" x2="4327.75" y2="2836.74" fill="rgb(255,255,255)" stroke="rgb(0,0,255)" stroke-width="2mm" style="stroke-linecap:butt;stroke-linejoin:miter" />
<polygon fill="rgb(0,0,255)" stroke="rgb(0,0,255)" stroke-width="2mm" style="stroke-linecap:butt;stroke-linejoin:miter"
          points="4322.74,2852.72 4379.43,2852.94 4332.77,2820.75" />
</g>
<g>
<line x1="1190.55" y1="2232.95" x2="2720.01" y2="2232.95" fill="rgb(255,255,255)" stroke="rgb(255,0,0)" stroke-width="2mm" style="stroke-linecap:butt;stroke-linejoin:miter" />
<polygon fill="rgb(255,0,0)" stroke="rgb(255,0,0)" stroke-width="2mm" style="stroke-linecap:butt;stroke-linejoin:miter"
          points="2720.01,2249.71 2774.17,2232.95 2720.01,2216.2" />
</g>
<g>
<line x1="2774.17" y1="2232.95" x2="2939.67" y2="2268.13" fill="rgb(255,255,255)" stroke="rgb(0,128,0)" stroke-width="2mm" style="stroke-linecap:butt;stroke-linejoin:miter" />
<polygon fill="rgb(0,128,0)" stroke="rgb(0,128,0)" stroke-width="2mm" style="stroke-linecap:butt;stroke-linejoin:miter"
          points="2936.19,2284.52 2992.65,2279.39 2943.16,2251.74" />
</g>
<g>
<line x1="2992.65" y1="2279.39" x2="4187.27" y2="2935.97" fill="rgb(255,255,255)" stroke="rgb(0,0,255)" stroke-width="2mm" style="stroke-linecap:butt;stroke-linejoin:miter" />
<polygon fill="rgb(0,0,255)" stroke="rgb(0,0,255)" stroke-width="2mm" style="stroke-linecap:butt;stroke-linejoin:miter"
          points="4179.2,2950.65 4234.74,2962.05 4195.34,2921.28" />
</g>
</svg>
