<?xml version="1.0" encoding="ISO-8859-1" standalone="no"?>
<!DOCTYPE svg PUBLIC "-//W3C//DTD SVG 1.1//EN"
 "http://www.w3.org/Graphics/SVG/1.1/DTD/svg11.dtd">
<svg width="12.4072mm" height="10mm" 
     viewBox="0 0 35.1699 28.3465" 
     xmlns="http://www.w3.org/2000/svg" xmlns:xlink="http://www.w3.org/1999/xlink" version="1.1" >
<desc>Drawing created with the Board library (v0.9.6) Copyright Sebastien Fourey</desc>
<rect x="0" y="0" width="28.3465" height="28.3465" fill="rgb(255,255,255)" stroke="none" stroke-width="0" style="stroke-linecap:round;stroke-linejoin:round;" />
<ellipse cx="15.0236" cy="14.1732" rx="2.26772" ry="8.50394" fill="rgb(255,255,255)" stroke="rgb(0,139,139)" stroke-width="0.02mm" style="stroke-linecap:butt;stroke-linejoin:miter"  fill-opacity="0.000000" />
<ellipse cx="12.7559" cy="14.1732" rx="2.83465" ry="8.50394" fill="rgb(255,255,255)" stroke="rgb(0,139,139)" stroke-width="0.02mm" style="stroke-linecap:butt;stroke-linejoin:miter"  fill-opacity="0.000000" />
<path fill="rgb(255,255,255)" stroke="rgb(0,139,139)" stroke-width="0mm" style="stroke-linecap:butt;stroke-linejoin:miter"
          d="M 9.86457 22.7339 L 17.348 22.7339 L 17.348 5.6126 L 9.86457 5.6126 Z
M 12.6992 6.55535 L 15.6472 6.55535 L 15.6472 21.7911 L 12.6992 21.7911 Z
" />
<rect x="14.0158" y="6.55535" width="0" height="15.2358" fill="rgb(255,255,255)" stroke="rgb(0,139,139)" stroke-width="0.02mm" style="stroke-linecap:butt;stroke-linejoin:miter" />
<g>
<line x1="9.92126" y1="20.2675" x2="12.9004" y2="20.2675" fill="rgb(255,255,255)" stroke="rgb(255,0,0)" stroke-width="0.02mm" style="stroke-linecap:butt;stroke-linejoin:miter" />
<polygon fill="rgb(255,0,0)" stroke="rgb(255,0,0)" stroke-width="0.02mm" style="stroke-linecap:butt;stroke-linejoin:miter"
          points="12.9004,20.4351 13.442,20.2675 12.9004,20.1" />
</g>
<g>
<line x1="13.442" y1="20.2675" x2="14.234" y2="20.1958" fill="rgb(255,255,255)" stroke="rgb(0,128,0)" stroke-width="0.02mm" style="stroke-linecap:butt;stroke-linejoin:miter" />
<polygon fill="rgb(0,128,0)" stroke="rgb(0,128,0)" stroke-width="0.02mm" style="stroke-linecap:butt;stroke-linejoin:miter"
          points="14.2491,20.3626 14.7734,20.1469 14.2189,20.0289" />
</g>
<g>
<line x1="14.7734" y1="20.1469" x2="22.3316" y2="17.6427" fill="rgb(255,255,255)" stroke="rgb(0,0,255)" stroke-width="0.02mm" style="stroke-linecap:butt;stroke-linejoin:miter" />
<polygon fill="rgb(0,0,255)" stroke="rgb(0,0,255)" stroke-width="0.02mm" style="stroke-linecap:butt;stroke-linejoin:miter"
          points="22.3844,17.8017 22.8458,17.4723 22.279,17.4837" />
</g>
<g>
<line x1="9.92126" y1="18.744" x2="12.5697" y2="18.744" fill="rgb(255,255,255)" stroke="rgb(255,0,0)" stroke-width="0.02mm" style="stroke-linecap:butt;stroke-linejoin:miter" />
<polygon fill="rgb(255,0,0)" stroke="rgb(255,0,0)" stroke-width="0.02mm" style="stroke-linecap:butt;stroke-linejoin:miter"
          points="12.5697,18.9115 13.1113,18.744 12.5697,18.5764" />
</g>
<g>
<line x1="13.1113" y1="18.744" x2="14.6298" y2="18.6582" fill="rgb(255,255,255)" stroke="rgb(0,128,0)" stroke-width="0.02mm" style="stroke-linecap:butt;stroke-linejoin:miter" />
<polygon fill="rgb(0,128,0)" stroke="rgb(0,128,0)" stroke-width="0.02mm" style="stroke-linecap:butt;stroke-linejoin:miter"
          points="14.6393,18.8255 15.1706,18.6277 14.6204,18.4909" />
</g>
<g>
<line x1="15.1706" y1="18.6277" x2="22.9873" y2="17.1123" fill="rgb(255,255,255)" stroke="rgb(0,0,255)" stroke-width="0.02mm" style="stroke-linecap:butt;stroke-linejoin:miter" />
<polygon fill="rgb(0,0,255)" stroke="rgb(0,0,255)" stroke-width="0.02mm" style="stroke-linecap:butt;stroke-linejoin:miter"
          points="23.0192,17.2767 23.5191,17.0092 22.9555,16.9478" />
</g>
<g>
<line x1="9.92126" y1="17.2204" x2="12.3649" y2="17.2204" fill="rgb(255,255,255)" stroke="rgb(255,0,0)" stroke-width="0.02mm" style="stroke-linecap:butt;stroke-linejoin:miter" />
<polygon fill="rgb(255,0,0)" stroke="rgb(255,0,0)" stroke-width="0.02mm" style="stroke-linecap:butt;stroke-linejoin:miter"
          points="12.3649,17.3879 12.9065,17.2204 12.3649,17.0528" />
</g>
<g>
<line x1="12.9065" y1="17.2204" x2="14.8718" y2="17.1534" fill="rgb(255,255,255)" stroke="rgb(0,128,0)" stroke-width="0.02mm" style="stroke-linecap:butt;stroke-linejoin:miter" />
<polygon fill="rgb(0,128,0)" stroke="rgb(0,128,0)" stroke-width="0.02mm" style="stroke-linecap:butt;stroke-linejoin:miter"
          points="14.8775,17.3209 15.4131,17.135 14.8661,16.986" />
</g>
<g>
<line x1="15.4131" y1="17.135" x2="23.3238" y2="16.2296" fill="rgb(255,255,255)" stroke="rgb(0,0,255)" stroke-width="0.02mm" style="stroke-linecap:butt;stroke-linejoin:miter" />
<polygon fill="rgb(0,0,255)" stroke="rgb(0,0,255)" stroke-width="0.02mm" style="stroke-linecap:butt;stroke-linejoin:miter"
          points="23.3428,16.3961 23.8619,16.168 23.3047,16.0632" />
</g>
<g>
<line x1="9.92126" y1="15.6968" x2="12.251" y2="15.6968" fill="rgb(255,255,255)" stroke="rgb(255,0,0)" stroke-width="0.02mm" style="stroke-linecap:butt;stroke-linejoin:miter" />
<polygon fill="rgb(255,0,0)" stroke="rgb(255,0,0)" stroke-width="0.02mm" style="stroke-linecap:butt;stroke-linejoin:miter"
          points="12.251,15.8643 12.7926,15.6968 12.251,15.5293" />
</g>
<g>
<line x1="12.7926" y1="15.6968" x2="15.0058" y2="15.661" fill="rgb(255,255,255)" stroke="rgb(0,128,0)" stroke-width="0.02mm" style="stroke-linecap:butt;stroke-linejoin:miter" />
<polygon fill="rgb(0,128,0)" stroke="rgb(0,128,0)" stroke-width="0.02mm" style="stroke-linecap:butt;stroke-linejoin:miter"
          points="15.0085,15.8285 15.5473,15.6522 15.0031,15.4935" />
</g>
<g>
<line x1="15.5473" y1="15.6522" x2="23.4982" y2="15.224" fill="rgb(255,255,255)" stroke="rgb(0,0,255)" stroke-width="0.02mm" style="stroke-linecap:butt;stroke-linejoin:miter" />
<polygon fill="rgb(0,0,255)" stroke="rgb(0,0,255)" stroke-width="0.02mm" style="stroke-linecap:butt;stroke-linejoin:miter"
          points="23.5072,15.3913 24.039,15.1949 23.4891,15.0567" />
</g>
<g>
<line x1="9.92126" y1="14.1732" x2="12.2143" y2="14.1732" fill="rgb(255,255,255)" stroke="rgb(255,0,0)" stroke-width="0.02mm" style="stroke-linecap:butt;stroke-linejoin:miter" />
<polygon fill="rgb(255,0,0)" stroke="rgb(255,0,0)" stroke-width="0.02mm" style="stroke-linecap:butt;stroke-linejoin:miter"
          points="12.2143,14.3408 12.7559,14.1732 12.2143,14.0057" />
</g>
<g>
<line x1="12.7559" y1="14.1732" x2="15.0489" y2="14.1732" fill="rgb(255,255,255)" stroke="rgb(0,128,0)" stroke-width="0.02mm" style="stroke-linecap:butt;stroke-linejoin:miter" />
<polygon fill="rgb(0,128,0)" stroke="rgb(0,128,0)" stroke-width="0.02mm" style="stroke-linecap:butt;stroke-linejoin:miter"
          points="15.0489,14.3408 15.5906,14.1732 15.0489,14.0057" />
</g>
<g>
<line x1="15.5906" y1="14.1732" x2="23.5529" y2="14.1732" fill="rgb(255,255,255)" stroke="rgb(0,0,255)" stroke-width="0.02mm" style="stroke-linecap:butt;stroke-linejoin:miter" />
<polygon fill="rgb(0,0,255)" stroke="rgb(0,0,255)" stroke-width="0.02mm" style="stroke-linecap:butt;stroke-linejoin:miter"
          points="23.5529,14.3408 24.0945,14.1732 23.5529,14.0057" />
</g>
<g>
<line x1="9.92126" y1="12.6496" x2="12.251" y2="12.6496" fill="rgb(255,255,255)" stroke="rgb(255,0,0)" stroke-width="0.02mm" style="stroke-linecap:butt;stroke-linejoin:miter" />
<polygon fill="rgb(255,0,0)" stroke="rgb(255,0,0)" stroke-width="0.02mm" style="stroke-linecap:butt;stroke-linejoin:miter"
          points="12.251,12.8172 12.7926,12.6496 12.251,12.4821" />
</g>
<g>
<line x1="12.7926" y1="12.6496" x2="15.0058" y2="12.6855" fill="rgb(255,255,255)" stroke="rgb(0,128,0)" stroke-width="0.02mm" style="stroke-linecap:butt;stroke-linejoin:miter" />
<polygon fill="rgb(0,128,0)" stroke="rgb(0,128,0)" stroke-width="0.02mm" style="stroke-linecap:butt;stroke-linejoin:miter"
          points="15.0031,12.853 15.5473,12.6942 15.0085,12.518" />
</g>
<g>
<line x1="15.5473" y1="12.6942" x2="23.4982" y2="13.1225" fill="rgb(255,255,255)" stroke="rgb(0,0,255)" stroke-width="0.02mm" style="stroke-linecap:butt;stroke-linejoin:miter" />
<polygon fill="rgb(0,0,255)" stroke="rgb(0,0,255)" stroke-width="0.02mm" style="stroke-linecap:butt;stroke-linejoin:miter"
          points="23.4891,13.2897 24.039,13.1516 23.5072,12.9551" />
</g>
<g>
<line x1="9.92126" y1="11.1261" x2="12.3649" y2="11.1261" fill="rgb(255,255,255)" stroke="rgb(255,0,0)" stroke-width="0.02mm" style="stroke-linecap:butt;stroke-linejoin:miter" />
<polygon fill="rgb(255,0,0)" stroke="rgb(255,0,0)" stroke-width="0.02mm" style="stroke-linecap:butt;stroke-linejoin:miter"
          points="12.3649,11.2936 12.9065,11.1261 12.3649,10.9585" />
</g>
<g>
<line x1="12.9065" y1="11.1261" x2="14.8718" y2="11.193" fill="rgb(255,255,255)" stroke="rgb(0,128,0)" stroke-width="0.02mm" style="stroke-linecap:butt;stroke-linejoin:miter" />
<polygon fill="rgb(0,128,0)" stroke="rgb(0,128,0)" stroke-width="0.02mm" style="stroke-linecap:butt;stroke-linejoin:miter"
          points="14.8661,11.3605 15.4131,11.2115 14.8775,11.0256" />
</g>
<g>
<line x1="15.4131" y1="11.2115" x2="23.3238" y2="12.1168" fill="rgb(255,255,255)" stroke="rgb(0,0,255)" stroke-width="0.02mm" style="stroke-linecap:butt;stroke-linejoin:miter" />
<polygon fill="rgb(0,0,255)" stroke="rgb(0,0,255)" stroke-width="0.02mm" style="stroke-linecap:butt;stroke-linejoin:miter"
          points="23.3047,12.2833 23.8619,12.1784 23.3428,11.9504" />
</g>
<g>
<line x1="9.92126" y1="9.6025" x2="12.5697" y2="9.6025" fill="rgb(255,255,255)" stroke="rgb(255,0,0)" stroke-width="0.02mm" style="stroke-linecap:butt;stroke-linejoin:miter" />
<polygon fill="rgb(255,0,0)" stroke="rgb(255,0,0)" stroke-width="0.02mm" style="stroke-linecap:butt;stroke-linejoin:miter"
          points="12.5697,9.77004 13.1113,9.6025 12.5697,9.43496" />
</g>
<g>
<line x1="13.1113" y1="9.6025" x2="14.6298" y2="9.68826" fill="rgb(255,255,255)" stroke="rgb(0,128,0)" stroke-width="0.02mm" style="stroke-linecap:butt;stroke-linejoin:miter" />
<polygon fill="rgb(0,128,0)" stroke="rgb(0,128,0)" stroke-width="0.02mm" style="stroke-linecap:butt;stroke-linejoin:miter"
          points="14.6204,9.85553 15.1706,9.7188 14.6393,9.52098" />
</g>
<g>
<line x1="15.1706" y1="9.7188" x2="22.9873" y2="11.2342" fill="rgb(255,255,255)" stroke="rgb(0,0,255)" stroke-width="0.02mm" style="stroke-linecap:butt;stroke-linejoin:miter" />
<polygon fill="rgb(0,0,255)" stroke="rgb(0,0,255)" stroke-width="0.02mm" style="stroke-linecap:butt;stroke-linejoin:miter"
          points="22.9555,11.3987 23.5191,11.3373 23.0192,11.0697" />
</g>
<g>
<line x1="9.92126" y1="8.07892" x2="12.9004" y2="8.07892" fill="rgb(255,255,255)" stroke="rgb(255,0,0)" stroke-width="0.02mm" style="stroke-linecap:butt;stroke-linejoin:miter" />
<polygon fill="rgb(255,0,0)" stroke="rgb(255,0,0)" stroke-width="0.02mm" style="stroke-linecap:butt;stroke-linejoin:miter"
          points="12.9004,8.24646 13.442,8.07892 12.9004,7.91138" />
</g>
<g>
<line x1="13.442" y1="8.07892" x2="14.234" y2="8.15067" fill="rgb(255,255,255)" stroke="rgb(0,128,0)" stroke-width="0.02mm" style="stroke-linecap:butt;stroke-linejoin:miter" />
<polygon fill="rgb(0,128,0)" stroke="rgb(0,128,0)" stroke-width="0.02mm" style="stroke-linecap:butt;stroke-linejoin:miter"
          points="14.2189,8.31752 14.7734,8.19953 14.2491,7.98381" />
</g>
<g>
<line x1="14.7734" y1="8.19953" x2="22.3316" y2="10.7038" fill="rgb(255,255,255)" stroke="rgb(0,0,255)" stroke-width="0.02mm" style="stroke-linecap:butt;stroke-linejoin:miter" />
<polygon fill="rgb(0,0,255)" stroke="rgb(0,0,255)" stroke-width="0.02mm" style="stroke-linecap:butt;stroke-linejoin:miter"
          points="22.279,10.8628 22.8458,10.8741 22.3844,10.5447" />
</g>
<line x1="34.8946" y1="14.1732" x2="34.8946" y2="14.1732" fill="none" stroke="rgb(255,0,0)" stroke-width="0.1mm" style="stroke-linecap:round;stroke-linejoin:miter" />
<line x1="34.8194" y1="14.1732" x2="34.8194" y2="14.1732" fill="none" stroke="rgb(0,128,0)" stroke-width="0.1mm" style="stroke-linecap:round;stroke-linejoin:miter" />
<line x1="35.0282" y1="14.1732" x2="35.0282" y2="14.1732" fill="none" stroke="rgb(0,0,255)" stroke-width="0.1mm" style="stroke-linecap:round;stroke-linejoin:miter" />
</svg>
