<?xml version="1.0" encoding="ISO-8859-1" standalone="no"?>
<!DOCTYPE svg PUBLIC "-//W3C//DTD SVG 1.1//EN"
 "http://www.w3.org/Graphics/SVG/1.1/DTD/svg11.dtd">
<svg width="2000mm" height="2000mm" 
     viewBox="0 0 5669.29 5669.29" 
     xmlns="http://www.w3.org/2000/svg" xmlns:xlink="http://www.w3.org/1999/xlink" version="1.1" >
<desc>Drawing created with the Board library (v0.9.6) Copyright Sebastien Fourey</desc>
<rect x="0" y="0" width="5669.29" height="5669.29" fill="rgb(255,255,255)" stroke="none" stroke-width="0" style="stroke-linecap:round;stroke-linejoin:round;" />
<ellipse cx="2919.69" cy="2834.65" rx="226.772" ry="850.394" fill="rgb(255,255,255)" stroke="rgb(0,139,139)" stroke-width="2mm" style="stroke-linecap:butt;stroke-linejoin:miter"  fill-opacity="0.000000" />
<ellipse cx="2692.91" cy="2834.65" rx="283.465" ry="850.394" fill="rgb(255,255,255)" stroke="rgb(0,139,139)" stroke-width="2mm" style="stroke-linecap:butt;stroke-linejoin:miter"  fill-opacity="0.000000" />
<path fill="rgb(255,255,255)" stroke="rgb(0,139,139)" stroke-width="0mm" style="stroke-linecap:butt;stroke-linejoin:miter"
          d="M 2403.78 3690.71 L 3152.13 3690.71 L 3152.13 1978.58 L 2403.78 1978.58 Z
M 2687.24 2072.86 L 2982.05 2072.86 L 2982.05 3596.43 L 2687.24 3596.43 Z
" />
<rect x="2818.9" y="2072.86" width="0" height="1523.58" fill="rgb(255,255,255)" stroke="rgb(0,139,139)" stroke-width="2mm" style="stroke-linecap:butt;stroke-linejoin:miter" />
<g>
<line x1="1275.59" y1="3444.08" x2="2707.37" y2="3444.08" fill="rgb(255,255,255)" stroke="rgb(255,0,0)" stroke-width="2mm" style="stroke-linecap:butt;stroke-linejoin:miter" />
<polygon fill="rgb(255,0,0)" stroke="rgb(255,0,0)" stroke-width="2mm" style="stroke-linecap:butt;stroke-linejoin:miter"
          points="2707.37,3460.83 2761.53,3444.08 2707.37,3427.32" />
</g>
<g>
<line x1="2761.53" y1="3444.08" x2="2840.72" y2="3436.9" fill="rgb(255,255,255)" stroke="rgb(0,128,0)" stroke-width="2mm" style="stroke-linecap:butt;stroke-linejoin:miter" />
<polygon fill="rgb(0,128,0)" stroke="rgb(0,128,0)" stroke-width="2mm" style="stroke-linecap:butt;stroke-linejoin:miter"
          points="2842.23,3453.59 2894.66,3432.02 2839.21,3420.22" />
</g>
<g>
<line x1="2894.66" y1="3432.02" x2="4188.65" y2="3003.29" fill="rgb(255,255,255)" stroke="rgb(0,0,255)" stroke-width="2mm" style="stroke-linecap:butt;stroke-linejoin:miter" />
<polygon fill="rgb(0,0,255)" stroke="rgb(0,0,255)" stroke-width="2mm" style="stroke-linecap:butt;stroke-linejoin:miter"
          points="4193.92,3019.19 4240.06,2986.25 4183.38,2987.38" />
</g>
<g>
<line x1="1275.59" y1="3291.72" x2="2674.29" y2="3291.72" fill="rgb(255,255,255)" stroke="rgb(255,0,0)" stroke-width="2mm" style="stroke-linecap:butt;stroke-linejoin:miter" />
<polygon fill="rgb(255,0,0)" stroke="rgb(255,0,0)" stroke-width="2mm" style="stroke-linecap:butt;stroke-linejoin:miter"
          points="2674.29,3308.47 2728.45,3291.72 2674.29,3274.96" />
</g>
<g>
<line x1="2728.45" y1="3291.72" x2="2880.3" y2="3283.14" fill="rgb(255,255,255)" stroke="rgb(0,128,0)" stroke-width="2mm" style="stroke-linecap:butt;stroke-linejoin:miter" />
<polygon fill="rgb(0,128,0)" stroke="rgb(0,128,0)" stroke-width="2mm" style="stroke-linecap:butt;stroke-linejoin:miter"
          points="2881.25,3299.87 2934.38,3280.09 2879.36,3266.42" />
</g>
<g>
<line x1="2934.38" y1="3280.09" x2="4272.62" y2="3020.65" fill="rgb(255,255,255)" stroke="rgb(0,0,255)" stroke-width="2mm" style="stroke-linecap:butt;stroke-linejoin:miter" />
<polygon fill="rgb(0,0,255)" stroke="rgb(0,0,255)" stroke-width="2mm" style="stroke-linecap:butt;stroke-linejoin:miter"
          points="4275.81,3037.1 4325.8,3010.34 4269.44,3004.2" />
</g>
<g>
<line x1="1275.59" y1="3139.36" x2="2653.81" y2="3139.36" fill="rgb(255,255,255)" stroke="rgb(255,0,0)" stroke-width="2mm" style="stroke-linecap:butt;stroke-linejoin:miter" />
<polygon fill="rgb(255,0,0)" stroke="rgb(255,0,0)" stroke-width="2mm" style="stroke-linecap:butt;stroke-linejoin:miter"
          points="2653.81,3156.11 2707.97,3139.36 2653.81,3122.61" />
</g>
<g>
<line x1="2707.97" y1="3139.36" x2="2904.5" y2="3132.66" fill="rgb(255,255,255)" stroke="rgb(0,128,0)" stroke-width="2mm" style="stroke-linecap:butt;stroke-linejoin:miter" />
<polygon fill="rgb(0,128,0)" stroke="rgb(0,128,0)" stroke-width="2mm" style="stroke-linecap:butt;stroke-linejoin:miter"
          points="2905.07,3149.41 2958.63,3130.82 2903.93,3115.92" />
</g>
<g>
<line x1="2958.63" y1="3130.82" x2="4312.95" y2="2975.82" fill="rgb(255,255,255)" stroke="rgb(0,0,255)" stroke-width="2mm" style="stroke-linecap:butt;stroke-linejoin:miter" />
<polygon fill="rgb(0,0,255)" stroke="rgb(0,0,255)" stroke-width="2mm" style="stroke-linecap:butt;stroke-linejoin:miter"
          points="4314.86,2992.47 4366.76,2969.66 4311.05,2959.18" />
</g>
<g>
<line x1="1275.59" y1="2987" x2="2642.42" y2="2987" fill="rgb(255,255,255)" stroke="rgb(255,0,0)" stroke-width="2mm" style="stroke-linecap:butt;stroke-linejoin:miter" />
<polygon fill="rgb(255,0,0)" stroke="rgb(255,0,0)" stroke-width="2mm" style="stroke-linecap:butt;stroke-linejoin:miter"
          points="2642.42,3003.76 2696.58,2987 2642.42,2970.25" />
</g>
<g>
<line x1="2696.58" y1="2987" x2="2917.9" y2="2983.42" fill="rgb(255,255,255)" stroke="rgb(0,128,0)" stroke-width="2mm" style="stroke-linecap:butt;stroke-linejoin:miter" />
<polygon fill="rgb(0,128,0)" stroke="rgb(0,128,0)" stroke-width="2mm" style="stroke-linecap:butt;stroke-linejoin:miter"
          points="2918.18,3000.17 2972.06,2982.55 2917.63,2966.67" />
</g>
<g>
<line x1="2972.06" y1="2982.55" x2="4333.25" y2="2909.23" fill="rgb(255,255,255)" stroke="rgb(0,0,255)" stroke-width="2mm" style="stroke-linecap:butt;stroke-linejoin:miter" />
<polygon fill="rgb(0,0,255)" stroke="rgb(0,0,255)" stroke-width="2mm" style="stroke-linecap:butt;stroke-linejoin:miter"
          points="4334.15,2925.96 4387.33,2906.32 4332.35,2892.5" />
</g>
<g>
<line x1="1275.59" y1="2834.65" x2="2638.75" y2="2834.65" fill="rgb(255,255,255)" stroke="rgb(255,0,0)" stroke-width="2mm" style="stroke-linecap:butt;stroke-linejoin:miter" />
<polygon fill="rgb(255,0,0)" stroke="rgb(255,0,0)" stroke-width="2mm" style="stroke-linecap:butt;stroke-linejoin:miter"
          points="2638.75,2851.4 2692.91,2834.65 2638.75,2817.89" />
</g>
<g>
<line x1="2692.91" y1="2834.65" x2="2922.22" y2="2834.65" fill="rgb(255,255,255)" stroke="rgb(0,128,0)" stroke-width="2mm" style="stroke-linecap:butt;stroke-linejoin:miter" />
<polygon fill="rgb(0,128,0)" stroke="rgb(0,128,0)" stroke-width="2mm" style="stroke-linecap:butt;stroke-linejoin:miter"
          points="2922.22,2851.4 2976.38,2834.65 2922.22,2817.89" />
</g>
<g>
<line x1="2976.38" y1="2834.65" x2="4339.54" y2="2834.65" fill="rgb(255,255,255)" stroke="rgb(0,0,255)" stroke-width="2mm" style="stroke-linecap:butt;stroke-linejoin:miter" />
<polygon fill="rgb(0,0,255)" stroke="rgb(0,0,255)" stroke-width="2mm" style="stroke-linecap:butt;stroke-linejoin:miter"
          points="4339.54,2851.4 4393.7,2834.65 4339.54,2817.89" />
</g>
<g>
<line x1="1275.59" y1="2682.29" x2="2642.42" y2="2682.29" fill="rgb(255,255,255)" stroke="rgb(255,0,0)" stroke-width="2mm" style="stroke-linecap:butt;stroke-linejoin:miter" />
<polygon fill="rgb(255,0,0)" stroke="rgb(255,0,0)" stroke-width="2mm" style="stroke-linecap:butt;stroke-linejoin:miter"
          points="2642.42,2699.04 2696.58,2682.29 2642.42,2665.53" />
</g>
<g>
<line x1="2696.58" y1="2682.29" x2="2917.9" y2="2685.87" fill="rgb(255,255,255)" stroke="rgb(0,128,0)" stroke-width="2mm" style="stroke-linecap:butt;stroke-linejoin:miter" />
<polygon fill="rgb(0,128,0)" stroke="rgb(0,128,0)" stroke-width="2mm" style="stroke-linecap:butt;stroke-linejoin:miter"
          points="2917.63,2702.62 2972.06,2686.75 2918.18,2669.12" />
</g>
<g>
<line x1="2972.06" y1="2686.75" x2="4333.25" y2="2760.06" fill="rgb(255,255,255)" stroke="rgb(0,0,255)" stroke-width="2mm" style="stroke-linecap:butt;stroke-linejoin:miter" />
<polygon fill="rgb(0,0,255)" stroke="rgb(0,0,255)" stroke-width="2mm" style="stroke-linecap:butt;stroke-linejoin:miter"
          points="4332.35,2776.79 4387.33,2762.97 4334.15,2743.33" />
</g>
<g>
<line x1="1275.59" y1="2529.93" x2="2653.81" y2="2529.93" fill="rgb(255,255,255)" stroke="rgb(255,0,0)" stroke-width="2mm" style="stroke-linecap:butt;stroke-linejoin:miter" />
<polygon fill="rgb(255,0,0)" stroke="rgb(255,0,0)" stroke-width="2mm" style="stroke-linecap:butt;stroke-linejoin:miter"
          points="2653.81,2546.68 2707.97,2529.93 2653.81,2513.18" />
</g>
<g>
<line x1="2707.97" y1="2529.93" x2="2904.5" y2="2536.63" fill="rgb(255,255,255)" stroke="rgb(0,128,0)" stroke-width="2mm" style="stroke-linecap:butt;stroke-linejoin:miter" />
<polygon fill="rgb(0,128,0)" stroke="rgb(0,128,0)" stroke-width="2mm" style="stroke-linecap:butt;stroke-linejoin:miter"
          points="2903.93,2553.37 2958.63,2538.47 2905.07,2519.88" />
</g>
<g>
<line x1="2958.63" y1="2538.47" x2="4312.95" y2="2693.47" fill="rgb(255,255,255)" stroke="rgb(0,0,255)" stroke-width="2mm" style="stroke-linecap:butt;stroke-linejoin:miter" />
<polygon fill="rgb(0,0,255)" stroke="rgb(0,0,255)" stroke-width="2mm" style="stroke-linecap:butt;stroke-linejoin:miter"
          points="4311.05,2710.11 4366.76,2699.63 4314.86,2676.82" />
</g>
<g>
<line x1="1275.59" y1="2377.57" x2="2674.29" y2="2377.57" fill="rgb(255,255,255)" stroke="rgb(255,0,0)" stroke-width="2mm" style="stroke-linecap:butt;stroke-linejoin:miter" />
<polygon fill="rgb(255,0,0)" stroke="rgb(255,0,0)" stroke-width="2mm" style="stroke-linecap:butt;stroke-linejoin:miter"
          points="2674.29,2394.33 2728.45,2377.57 2674.29,2360.82" />
</g>
<g>
<line x1="2728.45" y1="2377.57" x2="2880.3" y2="2386.15" fill="rgb(255,255,255)" stroke="rgb(0,128,0)" stroke-width="2mm" style="stroke-linecap:butt;stroke-linejoin:miter" />
<polygon fill="rgb(0,128,0)" stroke="rgb(0,128,0)" stroke-width="2mm" style="stroke-linecap:butt;stroke-linejoin:miter"
          points="2879.36,2402.88 2934.38,2389.2 2881.25,2369.42" />
</g>
<g>
<line x1="2934.38" y1="2389.2" x2="4272.62" y2="2648.64" fill="rgb(255,255,255)" stroke="rgb(0,0,255)" stroke-width="2mm" style="stroke-linecap:butt;stroke-linejoin:miter" />
<polygon fill="rgb(0,0,255)" stroke="rgb(0,0,255)" stroke-width="2mm" style="stroke-linecap:butt;stroke-linejoin:miter"
          points="4269.44,2665.09 4325.8,2658.95 4275.81,2632.19" />
</g>
<g>
<line x1="1275.59" y1="2225.22" x2="2707.37" y2="2225.22" fill="rgb(255,255,255)" stroke="rgb(255,0,0)" stroke-width="2mm" style="stroke-linecap:butt;stroke-linejoin:miter" />
<polygon fill="rgb(255,0,0)" stroke="rgb(255,0,0)" stroke-width="2mm" style="stroke-linecap:butt;stroke-linejoin:miter"
          points="2707.37,2241.97 2761.53,2225.22 2707.37,2208.46" />
</g>
<g>
<line x1="2761.53" y1="2225.22" x2="2840.72" y2="2232.39" fill="rgb(255,255,255)" stroke="rgb(0,128,0)" stroke-width="2mm" style="stroke-linecap:butt;stroke-linejoin:miter" />
<polygon fill="rgb(0,128,0)" stroke="rgb(0,128,0)" stroke-width="2mm" style="stroke-linecap:butt;stroke-linejoin:miter"
          points="2839.21,2249.07 2894.66,2237.28 2842.23,2215.7" />
</g>
<g>
<line x1="2894.66" y1="2237.28" x2="4188.65" y2="2666" fill="rgb(255,255,255)" stroke="rgb(0,0,255)" stroke-width="2mm" style="stroke-linecap:butt;stroke-linejoin:miter" />
<polygon fill="rgb(0,0,255)" stroke="rgb(0,0,255)" stroke-width="2mm" style="stroke-linecap:butt;stroke-linejoin:miter"
          points="4183.38,2681.91 4240.06,2683.04 4193.92,2650.1" />
</g>
<line x1="4906.78" y1="2834.65" x2="4906.78" y2="2834.65" fill="none" stroke="rgb(255,0,0)" stroke-width="10mm" style="stroke-linecap:round;stroke-linejoin:miter" />
<line x1="4899.27" y1="2834.65" x2="4899.27" y2="2834.65" fill="none" stroke="rgb(0,128,0)" stroke-width="10mm" style="stroke-linecap:round;stroke-linejoin:miter" />
</svg>
