<?xml version="1.0" encoding="ISO-8859-1" standalone="no"?>
<!DOCTYPE svg PUBLIC "-//W3C//DTD SVG 1.1//EN"
 "http://www.w3.org/Graphics/SVG/1.1/DTD/svg11.dtd">
<svg width="2053.38mm" height="2000mm" 
     viewBox="0 0 5820.62 5669.29" 
     xmlns="http://www.w3.org/2000/svg" xmlns:xlink="http://www.w3.org/1999/xlink" version="1.1" >
<desc>Drawing created with the Board library (v0.9.6) Copyright Sebastien Fourey</desc>
<rect x="0" y="0" width="5669.29" height="5669.29" fill="rgb(255,255,255)" stroke="none" stroke-width="0" style="stroke-linecap:round;stroke-linejoin:round;" />
<ellipse cx="2919.69" cy="2834.65" rx="226.772" ry="850.394" fill="rgb(255,255,255)" stroke="rgb(0,0,0)" stroke-width="2mm" style="stroke-linecap:butt;stroke-linejoin:miter"  fill-opacity="0.000000" />
<ellipse cx="2692.91" cy="2834.65" rx="283.465" ry="850.394" fill="rgb(255,255,255)" stroke="rgb(0,0,0)" stroke-width="2mm" style="stroke-linecap:butt;stroke-linejoin:miter"  fill-opacity="0.000000" />
<rect x="2818.9" y="2072.86" width="0" height="1523.58" fill="rgb(255,255,255)" stroke="rgb(0,0,0)" stroke-width="2mm" style="stroke-linecap:butt;stroke-linejoin:miter" />
<path fill="rgb(255,255,255)" stroke="rgb(0,0,0)" stroke-width="0mm" style="stroke-linecap:butt;stroke-linejoin:miter"
          d="M 2403.78 3690.71 L 3152.13 3690.71 L 3152.13 1978.58 L 2403.78 1978.58 Z
M 2687.24 2072.86 L 2982.05 2072.86 L 2982.05 3596.43 L 2687.24 3596.43 Z
" />
<g>
<line x1="1842.52" y1="3444.08" x2="2724.52" y2="3444.08" fill="rgb(255,255,255)" stroke="rgb(255,0,0)" stroke-width="2mm" style="stroke-linecap:butt;stroke-linejoin:miter" />
<polygon fill="rgb(255,0,0)" stroke="rgb(255,0,0)" stroke-width="2mm" style="stroke-linecap:butt;stroke-linejoin:miter"
          points="2724.52,3460.83 2778.68,3444.08 2724.52,3427.32" />
</g>
<g>
<line x1="2778.68" y1="3444.08" x2="2857.49" y2="3436.09" fill="rgb(255,255,255)" stroke="rgb(255,0,0)" stroke-width="2mm" style="stroke-linecap:butt;stroke-linejoin:miter" />
<polygon fill="rgb(255,0,0)" stroke="rgb(255,0,0)" stroke-width="2mm" style="stroke-linecap:butt;stroke-linejoin:miter"
          points="2859.18,3452.75 2911.37,3430.62 2855.8,3419.42" />
</g>
<g>
<line x1="2911.37" y1="3430.62" x2="5549.28" y2="2551.7" fill="rgb(255,255,255)" stroke="rgb(255,0,0)" stroke-width="2mm" style="stroke-linecap:butt;stroke-linejoin:miter" />
<polygon fill="rgb(255,0,0)" stroke="rgb(255,0,0)" stroke-width="2mm" style="stroke-linecap:butt;stroke-linejoin:miter"
          points="5554.58,2567.59 5600.67,2534.58 5543.99,2535.8" />
</g>
<g>
<line x1="1842.52" y1="3291.72" x2="2683.18" y2="3291.72" fill="rgb(255,255,255)" stroke="rgb(255,0,0)" stroke-width="2mm" style="stroke-linecap:butt;stroke-linejoin:miter" />
<polygon fill="rgb(255,0,0)" stroke="rgb(255,0,0)" stroke-width="2mm" style="stroke-linecap:butt;stroke-linejoin:miter"
          points="2683.18,3308.47 2737.34,3291.72 2683.18,3274.96" />
</g>
<g>
<line x1="2737.34" y1="3291.72" x2="2683.18" y2="3291.72" fill="rgb(255,255,255)" stroke="rgb(255,0,0)" stroke-width="2mm" style="stroke-linecap:butt;stroke-linejoin:miter" />
<polygon fill="rgb(255,0,0)" stroke="rgb(255,0,0)" stroke-width="2mm" style="stroke-linecap:butt;stroke-linejoin:miter"
          points="2683.18,3308.47 2737.34,3291.72 2683.18,3274.96" />
</g>
<g>
<line x1="2737.34" y1="3291.72" x2="5517.82" y2="3291.72" fill="rgb(255,255,255)" stroke="rgb(255,0,0)" stroke-width="2mm" style="stroke-linecap:butt;stroke-linejoin:miter" />
<polygon fill="rgb(255,0,0)" stroke="rgb(255,0,0)" stroke-width="2mm" style="stroke-linecap:butt;stroke-linejoin:miter"
          points="5517.82,3308.47 5571.99,3291.72 5517.82,3274.96" />
</g>
<g>
<line x1="1842.52" y1="3139.36" x2="2657.58" y2="3139.36" fill="rgb(255,255,255)" stroke="rgb(255,0,0)" stroke-width="2mm" style="stroke-linecap:butt;stroke-linejoin:miter" />
<polygon fill="rgb(255,0,0)" stroke="rgb(255,0,0)" stroke-width="2mm" style="stroke-linecap:butt;stroke-linejoin:miter"
          points="2657.58,3156.11 2711.74,3139.36 2657.58,3122.61" />
</g>
<g>
<line x1="2711.74" y1="3139.36" x2="2657.58" y2="3139.36" fill="rgb(255,255,255)" stroke="rgb(255,0,0)" stroke-width="2mm" style="stroke-linecap:butt;stroke-linejoin:miter" />
<polygon fill="rgb(255,0,0)" stroke="rgb(255,0,0)" stroke-width="2mm" style="stroke-linecap:butt;stroke-linejoin:miter"
          points="2657.58,3156.11 2711.74,3139.36 2657.58,3122.61" />
</g>
<g>
<line x1="2711.74" y1="3139.36" x2="5492.22" y2="3139.36" fill="rgb(255,255,255)" stroke="rgb(255,0,0)" stroke-width="2mm" style="stroke-linecap:butt;stroke-linejoin:miter" />
<polygon fill="rgb(255,0,0)" stroke="rgb(255,0,0)" stroke-width="2mm" style="stroke-linecap:butt;stroke-linejoin:miter"
          points="5492.22,3156.11 5546.38,3139.36 5492.22,3122.61" />
</g>
<g>
<line x1="1842.52" y1="2987" x2="2643.34" y2="2987" fill="rgb(255,255,255)" stroke="rgb(255,0,0)" stroke-width="2mm" style="stroke-linecap:butt;stroke-linejoin:miter" />
<polygon fill="rgb(255,0,0)" stroke="rgb(255,0,0)" stroke-width="2mm" style="stroke-linecap:butt;stroke-linejoin:miter"
          points="2643.34,3003.76 2697.5,2987 2643.34,2970.25" />
</g>
<g>
<line x1="2697.5" y1="2987" x2="2918.77" y2="2983.41" fill="rgb(255,255,255)" stroke="rgb(255,0,0)" stroke-width="2mm" style="stroke-linecap:butt;stroke-linejoin:miter" />
<polygon fill="rgb(255,0,0)" stroke="rgb(255,0,0)" stroke-width="2mm" style="stroke-linecap:butt;stroke-linejoin:miter"
          points="2919.04,3000.16 2972.92,2982.53 2918.5,2966.66" />
</g>
<g>
<line x1="2972.92" y1="2982.53" x2="5749.38" y2="2832.98" fill="rgb(255,255,255)" stroke="rgb(255,0,0)" stroke-width="2mm" style="stroke-linecap:butt;stroke-linejoin:miter" />
<polygon fill="rgb(255,0,0)" stroke="rgb(255,0,0)" stroke-width="2mm" style="stroke-linecap:butt;stroke-linejoin:miter"
          points="5750.28,2849.71 5803.47,2830.06 5748.48,2816.25" />
</g>
<g>
<line x1="1842.52" y1="2834.65" x2="2638.75" y2="2834.65" fill="rgb(255,255,255)" stroke="rgb(255,0,0)" stroke-width="2mm" style="stroke-linecap:butt;stroke-linejoin:miter" />
<polygon fill="rgb(255,0,0)" stroke="rgb(255,0,0)" stroke-width="2mm" style="stroke-linecap:butt;stroke-linejoin:miter"
          points="2638.75,2851.4 2692.91,2834.65 2638.75,2817.89" />
</g>
<g>
<line x1="2692.91" y1="2834.65" x2="2922.22" y2="2834.65" fill="rgb(255,255,255)" stroke="rgb(255,0,0)" stroke-width="2mm" style="stroke-linecap:butt;stroke-linejoin:miter" />
<polygon fill="rgb(255,0,0)" stroke="rgb(255,0,0)" stroke-width="2mm" style="stroke-linecap:butt;stroke-linejoin:miter"
          points="2922.22,2851.4 2976.38,2834.65 2922.22,2817.89" />
</g>
<g>
<line x1="2976.38" y1="2834.65" x2="5756.86" y2="2834.65" fill="rgb(255,255,255)" stroke="rgb(255,0,0)" stroke-width="2mm" style="stroke-linecap:butt;stroke-linejoin:miter" />
<polygon fill="rgb(255,0,0)" stroke="rgb(255,0,0)" stroke-width="2mm" style="stroke-linecap:butt;stroke-linejoin:miter"
          points="5756.86,2851.4 5811.02,2834.65 5756.86,2817.89" />
</g>
<g>
<line x1="1842.52" y1="2682.29" x2="2643.34" y2="2682.29" fill="rgb(255,255,255)" stroke="rgb(255,0,0)" stroke-width="2mm" style="stroke-linecap:butt;stroke-linejoin:miter" />
<polygon fill="rgb(255,0,0)" stroke="rgb(255,0,0)" stroke-width="2mm" style="stroke-linecap:butt;stroke-linejoin:miter"
          points="2643.34,2699.04 2697.5,2682.29 2643.34,2665.53" />
</g>
<g>
<line x1="2697.5" y1="2682.29" x2="2918.77" y2="2685.88" fill="rgb(255,255,255)" stroke="rgb(255,0,0)" stroke-width="2mm" style="stroke-linecap:butt;stroke-linejoin:miter" />
<polygon fill="rgb(255,0,0)" stroke="rgb(255,0,0)" stroke-width="2mm" style="stroke-linecap:butt;stroke-linejoin:miter"
          points="2918.5,2702.64 2972.92,2686.76 2919.04,2669.13" />
</g>
<g>
<line x1="2972.92" y1="2686.76" x2="5749.38" y2="2836.31" fill="rgb(255,255,255)" stroke="rgb(255,0,0)" stroke-width="2mm" style="stroke-linecap:butt;stroke-linejoin:miter" />
<polygon fill="rgb(255,0,0)" stroke="rgb(255,0,0)" stroke-width="2mm" style="stroke-linecap:butt;stroke-linejoin:miter"
          points="5748.48,2853.04 5803.47,2839.23 5750.28,2819.58" />
</g>
<g>
<line x1="1842.52" y1="2529.93" x2="2657.58" y2="2529.93" fill="rgb(255,255,255)" stroke="rgb(255,0,0)" stroke-width="2mm" style="stroke-linecap:butt;stroke-linejoin:miter" />
<polygon fill="rgb(255,0,0)" stroke="rgb(255,0,0)" stroke-width="2mm" style="stroke-linecap:butt;stroke-linejoin:miter"
          points="2657.58,2546.68 2711.74,2529.93 2657.58,2513.18" />
</g>
<g>
<line x1="2711.74" y1="2529.93" x2="2657.58" y2="2529.93" fill="rgb(255,255,255)" stroke="rgb(255,0,0)" stroke-width="2mm" style="stroke-linecap:butt;stroke-linejoin:miter" />
<polygon fill="rgb(255,0,0)" stroke="rgb(255,0,0)" stroke-width="2mm" style="stroke-linecap:butt;stroke-linejoin:miter"
          points="2657.58,2546.68 2711.74,2529.93 2657.58,2513.18" />
</g>
<g>
<line x1="2711.74" y1="2529.93" x2="5492.22" y2="2529.93" fill="rgb(255,255,255)" stroke="rgb(255,0,0)" stroke-width="2mm" style="stroke-linecap:butt;stroke-linejoin:miter" />
<polygon fill="rgb(255,0,0)" stroke="rgb(255,0,0)" stroke-width="2mm" style="stroke-linecap:butt;stroke-linejoin:miter"
          points="5492.22,2546.68 5546.38,2529.93 5492.22,2513.18" />
</g>
<g>
<line x1="1842.52" y1="2377.57" x2="2683.18" y2="2377.57" fill="rgb(255,255,255)" stroke="rgb(255,0,0)" stroke-width="2mm" style="stroke-linecap:butt;stroke-linejoin:miter" />
<polygon fill="rgb(255,0,0)" stroke="rgb(255,0,0)" stroke-width="2mm" style="stroke-linecap:butt;stroke-linejoin:miter"
          points="2683.18,2394.33 2737.34,2377.57 2683.18,2360.82" />
</g>
<g>
<line x1="2737.34" y1="2377.57" x2="2683.18" y2="2377.57" fill="rgb(255,255,255)" stroke="rgb(255,0,0)" stroke-width="2mm" style="stroke-linecap:butt;stroke-linejoin:miter" />
<polygon fill="rgb(255,0,0)" stroke="rgb(255,0,0)" stroke-width="2mm" style="stroke-linecap:butt;stroke-linejoin:miter"
          points="2683.18,2394.33 2737.34,2377.57 2683.18,2360.82" />
</g>
<g>
<line x1="2737.34" y1="2377.57" x2="5517.82" y2="2377.57" fill="rgb(255,255,255)" stroke="rgb(255,0,0)" stroke-width="2mm" style="stroke-linecap:butt;stroke-linejoin:miter" />
<polygon fill="rgb(255,0,0)" stroke="rgb(255,0,0)" stroke-width="2mm" style="stroke-linecap:butt;stroke-linejoin:miter"
          points="5517.82,2394.33 5571.99,2377.57 5517.82,2360.82" />
</g>
<g>
<line x1="1842.52" y1="2225.22" x2="2724.52" y2="2225.22" fill="rgb(255,255,255)" stroke="rgb(255,0,0)" stroke-width="2mm" style="stroke-linecap:butt;stroke-linejoin:miter" />
<polygon fill="rgb(255,0,0)" stroke="rgb(255,0,0)" stroke-width="2mm" style="stroke-linecap:butt;stroke-linejoin:miter"
          points="2724.52,2241.97 2778.68,2225.22 2724.52,2208.46" />
</g>
<g>
<line x1="2778.68" y1="2225.22" x2="2857.49" y2="2233.21" fill="rgb(255,255,255)" stroke="rgb(255,0,0)" stroke-width="2mm" style="stroke-linecap:butt;stroke-linejoin:miter" />
<polygon fill="rgb(255,0,0)" stroke="rgb(255,0,0)" stroke-width="2mm" style="stroke-linecap:butt;stroke-linejoin:miter"
          points="2855.8,2249.87 2911.37,2238.67 2859.18,2216.54" />
</g>
<g>
<line x1="2911.37" y1="2238.67" x2="5549.28" y2="3117.6" fill="rgb(255,255,255)" stroke="rgb(255,0,0)" stroke-width="2mm" style="stroke-linecap:butt;stroke-linejoin:miter" />
<polygon fill="rgb(255,0,0)" stroke="rgb(255,0,0)" stroke-width="2mm" style="stroke-linecap:butt;stroke-linejoin:miter"
          points="5543.99,3133.49 5600.67,3134.72 5554.58,3101.7" />
</g>
</svg>
