<?xml version="1.0" encoding="ISO-8859-1" standalone="no"?>
<!DOCTYPE svg PUBLIC "-//W3C//DTD SVG 1.1//EN"
 "http://www.w3.org/Graphics/SVG/1.1/DTD/svg11.dtd">
<svg width="2000mm" height="2000mm" 
     viewBox="0 0 5669.29 5669.29" 
     xmlns="http://www.w3.org/2000/svg" xmlns:xlink="http://www.w3.org/1999/xlink" version="1.1" >
<desc>Drawing created with the Board library (v0.9.6) Copyright Sebastien Fourey</desc>
<rect x="0" y="0" width="5669.29" height="5669.29" fill="rgb(255,255,255)" stroke="none" stroke-width="0" style="stroke-linecap:round;stroke-linejoin:round;" />
<ellipse cx="2267.72" cy="2834.65" rx="566.929" ry="850.394" fill="rgb(255,255,255)" stroke="rgb(0,139,139)" stroke-width="2mm" style="stroke-linecap:butt;stroke-linejoin:miter"  fill-opacity="0.000000" />
<ellipse cx="3685.04" cy="2834.65" rx="283.465" ry="850.394" fill="rgb(255,255,255)" stroke="rgb(0,139,139)" stroke-width="2mm" style="stroke-linecap:butt;stroke-linejoin:miter"  fill-opacity="0.000000" />
<path fill="rgb(255,255,255)" stroke="rgb(0,139,139)" stroke-width="0mm" style="stroke-linecap:butt;stroke-linejoin:miter"
          d="M 1695.12 3690.71 L 3974.17 3690.71 L 3974.17 1978.58 L 1695.12 1978.58 Z
M 1695.12 1984.25 L 3974.17 1984.25 L 3974.17 3685.04 L 1695.12 3685.04 Z
" />
<rect x="2267.72" y="1984.25" width="1417.32" height="1700.79" fill="rgb(255,255,255)" stroke="rgb(0,139,139)" stroke-width="2mm" style="stroke-linecap:butt;stroke-linejoin:miter" />
<g>
<line x1="283.465" y1="3514.96" x2="1873.4" y2="3514.96" fill="rgb(255,255,255)" stroke="rgb(255,0,0)" stroke-width="2mm" style="stroke-linecap:butt;stroke-linejoin:miter" />
<polygon fill="rgb(255,0,0)" stroke="rgb(255,0,0)" stroke-width="2mm" style="stroke-linecap:butt;stroke-linejoin:miter"
          points="1873.4,3531.71 1927.56,3514.96 1873.4,3498.21" />
</g>
<g>
<line x1="1927.56" y1="3514.96" x2="3913.39" y2="2970.06" fill="rgb(255,255,255)" stroke="rgb(0,128,0)" stroke-width="2mm" style="stroke-linecap:butt;stroke-linejoin:miter" />
<polygon fill="rgb(0,128,0)" stroke="rgb(0,128,0)" stroke-width="2mm" style="stroke-linecap:butt;stroke-linejoin:miter"
          points="3917.82,2986.22 3965.62,2955.73 3908.95,2953.91" />
</g>
<g>
<line x1="3965.62" y1="2955.73" x2="5200.93" y2="2379.35" fill="rgb(255,255,255)" stroke="rgb(0,0,255)" stroke-width="2mm" style="stroke-linecap:butt;stroke-linejoin:miter" />
<polygon fill="rgb(0,0,255)" stroke="rgb(0,0,255)" stroke-width="2mm" style="stroke-linecap:butt;stroke-linejoin:miter"
          points="5208.01,2394.53 5250.01,2356.45 5193.84,2364.17" />
</g>
<g>
<line x1="283.465" y1="3344.88" x2="1760.01" y2="3344.88" fill="rgb(255,255,255)" stroke="rgb(255,0,0)" stroke-width="2mm" style="stroke-linecap:butt;stroke-linejoin:miter" />
<polygon fill="rgb(255,0,0)" stroke="rgb(255,0,0)" stroke-width="2mm" style="stroke-linecap:butt;stroke-linejoin:miter"
          points="1760.01,3361.64 1814.17,3344.88 1760.01,3328.13" />
</g>
<g>
<line x1="1814.17" y1="3344.88" x2="3909.89" y2="3004.74" fill="rgb(255,255,255)" stroke="rgb(0,128,0)" stroke-width="2mm" style="stroke-linecap:butt;stroke-linejoin:miter" />
<polygon fill="rgb(0,128,0)" stroke="rgb(0,128,0)" stroke-width="2mm" style="stroke-linecap:butt;stroke-linejoin:miter"
          points="3912.57,3021.27 3963.35,2996.06 3907.21,2988.2" />
</g>
<g>
<line x1="3963.35" y1="2996.06" x2="5274.44" y2="2622.9" fill="rgb(255,255,255)" stroke="rgb(0,0,255)" stroke-width="2mm" style="stroke-linecap:butt;stroke-linejoin:miter" />
<polygon fill="rgb(0,0,255)" stroke="rgb(0,0,255)" stroke-width="2mm" style="stroke-linecap:butt;stroke-linejoin:miter"
          points="5279.03,2639.01 5326.53,2608.07 5269.86,2606.79" />
</g>
<g>
<line x1="283.465" y1="3174.8" x2="1693.96" y2="3174.8" fill="rgb(255,255,255)" stroke="rgb(255,0,0)" stroke-width="2mm" style="stroke-linecap:butt;stroke-linejoin:miter" />
<polygon fill="rgb(255,0,0)" stroke="rgb(255,0,0)" stroke-width="2mm" style="stroke-linecap:butt;stroke-linejoin:miter"
          points="1693.96,3191.56 1748.12,3174.8 1693.96,3158.05" />
</g>
<g>
<line x1="1748.12" y1="3174.8" x2="3911.41" y2="2966.93" fill="rgb(255,255,255)" stroke="rgb(0,128,0)" stroke-width="2mm" style="stroke-linecap:butt;stroke-linejoin:miter" />
<polygon fill="rgb(0,128,0)" stroke="rgb(0,128,0)" stroke-width="2mm" style="stroke-linecap:butt;stroke-linejoin:miter"
          points="3913.01,2983.6 3965.32,2961.75 3909.8,2950.25" />
</g>
<g>
<line x1="3965.32" y1="2961.75" x2="5308.86" y2="2731.31" fill="rgb(255,255,255)" stroke="rgb(0,0,255)" stroke-width="2mm" style="stroke-linecap:butt;stroke-linejoin:miter" />
<polygon fill="rgb(0,0,255)" stroke="rgb(0,0,255)" stroke-width="2mm" style="stroke-linecap:butt;stroke-linejoin:miter"
          points="5311.69,2747.82 5362.24,2722.15 5306.03,2714.79" />
</g>
<g>
<line x1="283.465" y1="3004.72" x2="1658.08" y2="3004.72" fill="rgb(255,255,255)" stroke="rgb(255,0,0)" stroke-width="2mm" style="stroke-linecap:butt;stroke-linejoin:miter" />
<polygon fill="rgb(255,0,0)" stroke="rgb(255,0,0)" stroke-width="2mm" style="stroke-linecap:butt;stroke-linejoin:miter"
          points="1658.08,3021.48 1712.24,3004.72 1658.08,2987.97" />
</g>
<g>
<line x1="1712.24" y1="3004.72" x2="3913.49" y2="2905.08" fill="rgb(255,255,255)" stroke="rgb(0,128,0)" stroke-width="2mm" style="stroke-linecap:butt;stroke-linejoin:miter" />
<polygon fill="rgb(0,128,0)" stroke="rgb(0,128,0)" stroke-width="2mm" style="stroke-linecap:butt;stroke-linejoin:miter"
          points="3914.25,2921.81 3967.6,2902.63 3912.73,2888.34" />
</g>
<g>
<line x1="3967.6" y1="2902.63" x2="5326.25" y2="2791.88" fill="rgb(255,255,255)" stroke="rgb(0,0,255)" stroke-width="2mm" style="stroke-linecap:butt;stroke-linejoin:miter" />
<polygon fill="rgb(0,0,255)" stroke="rgb(0,0,255)" stroke-width="2mm" style="stroke-linecap:butt;stroke-linejoin:miter"
          points="5327.61,2808.58 5380.23,2787.48 5324.89,2775.18" />
</g>
<g>
<line x1="283.465" y1="2834.65" x2="1646.63" y2="2834.65" fill="rgb(255,255,255)" stroke="rgb(255,0,0)" stroke-width="2mm" style="stroke-linecap:butt;stroke-linejoin:miter" />
<polygon fill="rgb(255,0,0)" stroke="rgb(255,0,0)" stroke-width="2mm" style="stroke-linecap:butt;stroke-linejoin:miter"
          points="1646.63,2851.4 1700.79,2834.65 1646.63,2817.89" />
</g>
<g>
<line x1="1700.79" y1="2834.65" x2="3914.34" y2="2834.65" fill="rgb(255,255,255)" stroke="rgb(0,128,0)" stroke-width="2mm" style="stroke-linecap:butt;stroke-linejoin:miter" />
<polygon fill="rgb(0,128,0)" stroke="rgb(0,128,0)" stroke-width="2mm" style="stroke-linecap:butt;stroke-linejoin:miter"
          points="3914.34,2851.4 3968.5,2834.65 3914.34,2817.89" />
</g>
<g>
<line x1="3968.5" y1="2834.65" x2="5331.67" y2="2834.65" fill="rgb(255,255,255)" stroke="rgb(0,0,255)" stroke-width="2mm" style="stroke-linecap:butt;stroke-linejoin:miter" />
<polygon fill="rgb(0,0,255)" stroke="rgb(0,0,255)" stroke-width="2mm" style="stroke-linecap:butt;stroke-linejoin:miter"
          points="5331.67,2851.4 5385.83,2834.65 5331.67,2817.89" />
</g>
<g>
<line x1="283.465" y1="2664.57" x2="1658.08" y2="2664.57" fill="rgb(255,255,255)" stroke="rgb(255,0,0)" stroke-width="2mm" style="stroke-linecap:butt;stroke-linejoin:miter" />
<polygon fill="rgb(255,0,0)" stroke="rgb(255,0,0)" stroke-width="2mm" style="stroke-linecap:butt;stroke-linejoin:miter"
          points="1658.08,2681.32 1712.24,2664.57 1658.08,2647.81" />
</g>
<g>
<line x1="1712.24" y1="2664.57" x2="3913.49" y2="2764.21" fill="rgb(255,255,255)" stroke="rgb(0,128,0)" stroke-width="2mm" style="stroke-linecap:butt;stroke-linejoin:miter" />
<polygon fill="rgb(0,128,0)" stroke="rgb(0,128,0)" stroke-width="2mm" style="stroke-linecap:butt;stroke-linejoin:miter"
          points="3912.73,2780.95 3967.6,2766.66 3914.25,2747.48" />
</g>
<g>
<line x1="3967.6" y1="2766.66" x2="5326.25" y2="2877.41" fill="rgb(255,255,255)" stroke="rgb(0,0,255)" stroke-width="2mm" style="stroke-linecap:butt;stroke-linejoin:miter" />
<polygon fill="rgb(0,0,255)" stroke="rgb(0,0,255)" stroke-width="2mm" style="stroke-linecap:butt;stroke-linejoin:miter"
          points="5324.89,2894.11 5380.23,2881.82 5327.61,2860.72" />
</g>
<g>
<line x1="283.465" y1="2494.49" x2="1693.96" y2="2494.49" fill="rgb(255,255,255)" stroke="rgb(255,0,0)" stroke-width="2mm" style="stroke-linecap:butt;stroke-linejoin:miter" />
<polygon fill="rgb(255,0,0)" stroke="rgb(255,0,0)" stroke-width="2mm" style="stroke-linecap:butt;stroke-linejoin:miter"
          points="1693.96,2511.24 1748.12,2494.49 1693.96,2477.73" />
</g>
<g>
<line x1="1748.12" y1="2494.49" x2="3911.41" y2="2702.36" fill="rgb(255,255,255)" stroke="rgb(0,128,0)" stroke-width="2mm" style="stroke-linecap:butt;stroke-linejoin:miter" />
<polygon fill="rgb(0,128,0)" stroke="rgb(0,128,0)" stroke-width="2mm" style="stroke-linecap:butt;stroke-linejoin:miter"
          points="3909.8,2719.04 3965.32,2707.54 3913.01,2685.69" />
</g>
<g>
<line x1="3965.32" y1="2707.54" x2="5308.86" y2="2937.99" fill="rgb(255,255,255)" stroke="rgb(0,0,255)" stroke-width="2mm" style="stroke-linecap:butt;stroke-linejoin:miter" />
<polygon fill="rgb(0,0,255)" stroke="rgb(0,0,255)" stroke-width="2mm" style="stroke-linecap:butt;stroke-linejoin:miter"
          points="5306.03,2954.5 5362.24,2947.14 5311.69,2921.47" />
</g>
<g>
<line x1="283.465" y1="2324.41" x2="1760.01" y2="2324.41" fill="rgb(255,255,255)" stroke="rgb(255,0,0)" stroke-width="2mm" style="stroke-linecap:butt;stroke-linejoin:miter" />
<polygon fill="rgb(255,0,0)" stroke="rgb(255,0,0)" stroke-width="2mm" style="stroke-linecap:butt;stroke-linejoin:miter"
          points="1760.01,2341.16 1814.17,2324.41 1760.01,2307.66" />
</g>
<g>
<line x1="1814.17" y1="2324.41" x2="3909.89" y2="2664.55" fill="rgb(255,255,255)" stroke="rgb(0,128,0)" stroke-width="2mm" style="stroke-linecap:butt;stroke-linejoin:miter" />
<polygon fill="rgb(0,128,0)" stroke="rgb(0,128,0)" stroke-width="2mm" style="stroke-linecap:butt;stroke-linejoin:miter"
          points="3907.21,2681.09 3963.35,2673.23 3912.57,2648.02" />
</g>
<g>
<line x1="3963.35" y1="2673.23" x2="5274.44" y2="3046.39" fill="rgb(255,255,255)" stroke="rgb(0,0,255)" stroke-width="2mm" style="stroke-linecap:butt;stroke-linejoin:miter" />
<polygon fill="rgb(0,0,255)" stroke="rgb(0,0,255)" stroke-width="2mm" style="stroke-linecap:butt;stroke-linejoin:miter"
          points="5269.86,3062.51 5326.53,3061.22 5279.03,3030.28" />
</g>
<g>
<line x1="283.465" y1="2154.33" x2="1873.4" y2="2154.33" fill="rgb(255,255,255)" stroke="rgb(255,0,0)" stroke-width="2mm" style="stroke-linecap:butt;stroke-linejoin:miter" />
<polygon fill="rgb(255,0,0)" stroke="rgb(255,0,0)" stroke-width="2mm" style="stroke-linecap:butt;stroke-linejoin:miter"
          points="1873.4,2171.08 1927.56,2154.33 1873.4,2137.58" />
</g>
<g>
<line x1="1927.56" y1="2154.33" x2="3913.39" y2="2699.23" fill="rgb(255,255,255)" stroke="rgb(0,128,0)" stroke-width="2mm" style="stroke-linecap:butt;stroke-linejoin:miter" />
<polygon fill="rgb(0,128,0)" stroke="rgb(0,128,0)" stroke-width="2mm" style="stroke-linecap:butt;stroke-linejoin:miter"
          points="3908.95,2715.38 3965.62,2713.56 3917.82,2683.07" />
</g>
<g>
<line x1="3965.62" y1="2713.56" x2="5200.93" y2="3289.94" fill="rgb(255,255,255)" stroke="rgb(0,0,255)" stroke-width="2mm" style="stroke-linecap:butt;stroke-linejoin:miter" />
<polygon fill="rgb(0,0,255)" stroke="rgb(0,0,255)" stroke-width="2mm" style="stroke-linecap:butt;stroke-linejoin:miter"
          points="5193.84,3305.12 5250.01,3312.84 5208.01,3274.76" />
</g>
</svg>
